<mxfile host="app.diagrams.net" modified="2022-10-08T14:05:39.366Z" agent="5.0 (Windows NT 10.0; Win64; x64) AppleWebKit/537.36 (KHTML, like Gecko) Chrome/105.0.0.0 Safari/537.36" etag="KZIfYcWIm7XPt7aI1AFk" version="20.4.0" type="github" pages="2">
  <diagram id="vySkNJd-FKlxjMpEcmsm" name="Overview">
    <mxGraphModel dx="1422" dy="754" grid="1" gridSize="10" guides="1" tooltips="1" connect="1" arrows="1" fold="1" page="1" pageScale="1" pageWidth="827" pageHeight="1169" math="0" shadow="0">
      <root>
        <mxCell id="0" />
        <mxCell id="1" parent="0" />
        <mxCell id="TbkaTAfgLL_WDE7PF532-1" value="Robo Coms&lt;br&gt;coms entre robos para extensao de rede&lt;br&gt;robo de transport&lt;br&gt;drones&lt;br&gt;robo de aterragem&lt;br&gt;robo tele com" style="text;html=1;align=center;verticalAlign=middle;resizable=0;points=[];autosize=1;strokeColor=none;fillColor=none;" parent="1" vertex="1">
          <mxGeometry x="10" y="120" width="240" height="100" as="geometry" />
        </mxCell>
      </root>
    </mxGraphModel>
  </diagram>
  <diagram id="U6btwaPVCxR7T7Qet3D-" name="PÃ¡gina-2">
    <mxGraphModel dx="1422" dy="754" grid="1" gridSize="10" guides="1" tooltips="1" connect="1" arrows="1" fold="1" page="1" pageScale="1" pageWidth="827" pageHeight="1169" math="0" shadow="0">
      <root>
        <mxCell id="0" />
        <mxCell id="1" parent="0" />
        <mxCell id="D9VOXixPJmUW0ykx9ZJY-1" value="&lt;font style=&quot;font-size: 25px;&quot;&gt;RC Vehicle&lt;/font&gt;" style="text;html=1;align=center;verticalAlign=middle;resizable=0;points=[];autosize=1;strokeColor=none;fillColor=none;" parent="1" vertex="1">
          <mxGeometry x="339" y="10" width="150" height="40" as="geometry" />
        </mxCell>
        <mxCell id="wgE0hKprBFn8pieZB-K4-2" style="edgeStyle=orthogonalEdgeStyle;rounded=0;orthogonalLoop=1;jettySize=auto;html=1;exitX=0.5;exitY=0.5;exitDx=0;exitDy=0;exitPerimeter=0;entryX=0;entryY=0.5;entryDx=0;entryDy=0;" edge="1" parent="1" source="D9VOXixPJmUW0ykx9ZJY-2" target="wgE0hKprBFn8pieZB-K4-1">
          <mxGeometry relative="1" as="geometry" />
        </mxCell>
        <mxCell id="D9VOXixPJmUW0ykx9ZJY-2" value="Actor" style="shape=umlActor;verticalLabelPosition=bottom;verticalAlign=top;html=1;outlineConnect=0;fontSize=25;" parent="1" vertex="1">
          <mxGeometry x="80" y="240" width="30" height="60" as="geometry" />
        </mxCell>
        <mxCell id="D9VOXixPJmUW0ykx9ZJY-3" value="" style="swimlane;startSize=0;fontSize=25;" parent="1" vertex="1">
          <mxGeometry x="250" y="130" width="350" height="410" as="geometry" />
        </mxCell>
        <mxCell id="wgE0hKprBFn8pieZB-K4-1" value="Go up" style="ellipse;whiteSpace=wrap;html=1;align=center;newEdgeStyle={&quot;edgeStyle&quot;:&quot;entityRelationEdgeStyle&quot;,&quot;startArrow&quot;:&quot;none&quot;,&quot;endArrow&quot;:&quot;none&quot;,&quot;segment&quot;:10,&quot;curved&quot;:1};treeFolding=1;treeMoving=1;" vertex="1" parent="D9VOXixPJmUW0ykx9ZJY-3">
          <mxGeometry x="110" y="40" width="100" height="40" as="geometry" />
        </mxCell>
        <mxCell id="wgE0hKprBFn8pieZB-K4-5" value="Go left" style="ellipse;whiteSpace=wrap;html=1;align=center;newEdgeStyle={&quot;edgeStyle&quot;:&quot;entityRelationEdgeStyle&quot;,&quot;startArrow&quot;:&quot;none&quot;,&quot;endArrow&quot;:&quot;none&quot;,&quot;segment&quot;:10,&quot;curved&quot;:1};treeFolding=1;treeMoving=1;" vertex="1" parent="D9VOXixPJmUW0ykx9ZJY-3">
          <mxGeometry x="110" y="210" width="100" height="40" as="geometry" />
        </mxCell>
        <mxCell id="wgE0hKprBFn8pieZB-K4-4" value="Go right" style="ellipse;whiteSpace=wrap;html=1;align=center;newEdgeStyle={&quot;edgeStyle&quot;:&quot;entityRelationEdgeStyle&quot;,&quot;startArrow&quot;:&quot;none&quot;,&quot;endArrow&quot;:&quot;none&quot;,&quot;segment&quot;:10,&quot;curved&quot;:1};treeFolding=1;treeMoving=1;" vertex="1" parent="D9VOXixPJmUW0ykx9ZJY-3">
          <mxGeometry x="110" y="150" width="100" height="40" as="geometry" />
        </mxCell>
        <mxCell id="wgE0hKprBFn8pieZB-K4-3" value="Go down" style="ellipse;whiteSpace=wrap;html=1;align=center;newEdgeStyle={&quot;edgeStyle&quot;:&quot;entityRelationEdgeStyle&quot;,&quot;startArrow&quot;:&quot;none&quot;,&quot;endArrow&quot;:&quot;none&quot;,&quot;segment&quot;:10,&quot;curved&quot;:1};treeFolding=1;treeMoving=1;" vertex="1" parent="D9VOXixPJmUW0ykx9ZJY-3">
          <mxGeometry x="110" y="90" width="100" height="40" as="geometry" />
        </mxCell>
      </root>
    </mxGraphModel>
  </diagram>
</mxfile>
